<?xml version="1.0" encoding="utf-8"?>
<!-- Generator: Adobe Illustrator 16.0.3, SVG Export Plug-In . SVG Version: 6.00 Build 0)  -->
<!DOCTYPE svg PUBLIC "-//W3C//DTD SVG 1.1//EN" "http://www.w3.org/Graphics/SVG/1.1/DTD/svg11.dtd">
<svg version="1.1" id="Capa_1" xmlns="http://www.w3.org/2000/svg" xmlns:xlink="http://www.w3.org/1999/xlink" x="0px" y="0px"
	 width="595.279px" height="264px" viewBox="0 256.445 595.279 264" enable-background="new 0 256.445 595.279 264"
	 xml:space="preserve">
<g>
	<path fill="#3C3C3B" d="M286.211,364.989v-9.882c0-0.833-0.119-1.429-0.238-1.667c-0.119-0.238-0.477-0.357-0.953-0.357
		l-1.071-0.119v-0.714l3.215,0.119l4.286-0.119c1.429,0,2.619,0.357,3.452,0.953c0.834,0.595,1.19,1.429,1.19,2.619
		c0,1.31-0.476,2.381-1.548,3.333c-1.071,0.833-2.262,1.31-3.69,1.31c-0.476,0-0.952,0-1.31-0.119l-0.238-0.833
		c0.477,0.119,0.953,0.238,1.429,0.238c0.953,0,1.667-0.357,2.263-0.952c0.595-0.595,0.833-1.429,0.833-2.381
		c0-0.952-0.357-1.786-0.952-2.381c-0.596-0.595-1.429-0.833-2.501-0.833c-0.833,0-1.666,0.119-2.381,0.238v11.429
		c0,0.833,0.119,1.429,0.238,1.667c0.119,0.238,0.477,0.357,0.952,0.357l1.072,0.119v0.714c-1.191,0-2.263-0.119-3.215-0.119
		s-2.024,0-3.215,0.119v-0.714l1.071-0.119c0.477,0,0.834-0.119,0.953-0.357C286.211,366.417,286.211,365.822,286.211,364.989"/>
	<path fill="#3C3C3B" d="M299.545,365.822c-1.429-1.548-2.144-3.453-2.144-5.834c0-2.381,0.834-4.286,2.382-5.833
		c1.548-1.548,3.69-2.262,6.19-2.262c2.262,0,4.167,0.714,5.596,2.024s2.143,3.096,2.143,5.238c0,2.62-0.833,4.762-2.381,6.31
		c-1.548,1.667-3.69,2.5-6.19,2.5C302.76,368.084,300.974,367.37,299.545,365.822 M309.783,365.346c0.952-1.19,1.429-2.976,1.429-5
		c0-2.262-0.595-4.048-1.667-5.357c-1.071-1.31-2.619-1.905-4.404-1.905c-1.667,0-3.096,0.595-4.048,1.667
		c-0.953,1.071-1.548,2.619-1.548,4.524c0,2.5,0.595,4.405,1.667,5.834c1.071,1.429,2.619,2.143,4.404,2.143
		C307.522,367.251,308.831,366.537,309.783,365.346"/>
	<path fill="#3C3C3B" d="M323.356,356.06l-0.119-1.429c0-0.238-0.119-0.357-0.119-0.476c-0.118-0.119-0.118-0.238-0.356-0.357
		c-0.357-0.238-0.715-0.357-1.071-0.595c-0.596-0.238-1.191-0.357-1.786-0.357c-0.952,0-1.786,0.357-2.381,0.952
		c-0.596,0.595-0.953,1.429-0.953,2.381c0,0.833,0.238,1.429,0.834,1.905c0.595,0.357,1.666,0.714,3.095,0.833
		c1.667,0.238,2.857,0.595,3.572,1.19c0.714,0.595,1.071,1.429,1.071,2.5c0,1.548-0.596,2.857-1.905,3.929
		c-1.31,1.071-2.857,1.547-4.643,1.547c-0.596,0-1.31-0.119-2.024-0.238c-0.714-0.119-1.31-0.357-1.904-0.714
		c0.119-0.714,0.119-1.19,0.119-1.667c0-0.476,0-1.071,0-1.667h0.714l0.119,1.429c0,0.238,0.119,0.357,0.119,0.476
		c0.119,0.119,0.119,0.238,0.357,0.357c0.356,0.238,0.714,0.477,1.19,0.714c0.595,0.238,1.31,0.357,1.904,0.357
		c1.19,0,2.144-0.357,2.857-0.953c0.715-0.595,1.071-1.429,1.071-2.5c0-0.953-0.356-1.548-0.952-2.024
		c-0.595-0.476-1.667-0.714-3.214-0.953c-1.667-0.238-2.857-0.595-3.453-1.19c-0.714-0.595-1.071-1.548-1.071-2.738
		c0-1.31,0.595-2.381,1.667-3.333c1.071-0.953,2.381-1.429,3.929-1.429c0.595,0,1.31,0.119,2.023,0.238
		c0.715,0.119,1.429,0.357,2.024,0.714c-0.119,0.596-0.238,1.072-0.238,1.548c0,0.477-0.119,0.953-0.119,1.548H323.356
		L323.356,356.06z"/>
	<path fill="#3C3C3B" d="M328.476,364.989l5.477-12.739h0.356h0.357l4.763,11.311c0.595,1.429,1.071,2.381,1.31,2.738
		c0.237,0.357,0.476,0.595,0.833,0.595l0.715,0.119v0.714c-1.072,0-2.144-0.119-2.857-0.119c-0.834,0-1.786,0-2.857,0.119v-0.714
		l1.071-0.119c0.477,0,0.714-0.119,0.833-0.357c0-0.238-0.119-0.714-0.476-1.667l-0.953-2.381h-6.31l-0.477,1.19
		c-0.595,1.429-0.952,2.262-0.952,2.619s0.238,0.476,0.833,0.595l1.072,0.119v0.714c-0.953,0-1.786-0.119-2.501-0.119
		c-0.714,0-1.547,0-2.5,0.119v-0.714l0.715-0.119c0.357,0,0.595-0.119,0.833-0.357C327.761,366.417,328.118,365.822,328.476,364.989
		 M330.976,361.774h5.477l-2.738-6.548l0,0L330.976,361.774z"/>
	<path fill="#3C3C3B" d="M345.381,365.108v-10.001c0-0.833,0-1.429-0.119-1.667c-0.119-0.238-0.356-0.357-0.833-0.357l-0.952-0.119
		v-0.714l3.095,0.119l4.763-0.119c2.5,0,4.524,0.596,5.953,1.786s2.262,2.738,2.262,4.762c0,2.738-0.833,4.881-2.381,6.429
		c-1.548,1.547-3.811,2.381-6.549,2.381l-4.048-0.119l-2.262,0.119v-0.595l0.477-0.238c0.356-0.119,0.595-0.357,0.714-0.595
		C345.262,366.179,345.381,365.822,345.381,365.108 M347.406,366.655c0.714,0.119,1.548,0.119,2.5,0.119
		c2.262,0,4.048-0.595,5.238-1.786s1.786-2.977,1.786-5.238c0-2.262-0.596-3.929-1.667-4.881c-1.071-1.072-2.857-1.548-5.357-1.548
		c-0.952,0-1.786,0-2.619,0.119v13.215H347.406z"/>
	<path fill="#3C3C3B" d="M362.645,364.989l5.477-12.739h0.356h0.357l4.763,11.311c0.595,1.429,1.071,2.381,1.31,2.738
		s0.476,0.595,0.833,0.595l0.715,0.119v0.714c-1.072,0-2.144-0.119-2.857-0.119c-0.834,0-1.786,0-2.857,0.119v-0.714l1.071-0.119
		c0.477,0,0.715-0.119,0.833-0.357c0-0.238-0.118-0.714-0.476-1.667l-0.952-2.381h-6.311l-0.477,1.19
		c-0.595,1.429-0.952,2.262-0.952,2.619s0.238,0.476,0.834,0.595l1.071,0.119v0.714c-0.952,0-1.786-0.119-2.5-0.119
		c-0.715,0-1.548,0-2.501,0.119v-0.714l0.715-0.119c0.357,0,0.596-0.119,0.833-0.357
		C361.93,366.417,362.287,365.822,362.645,364.989 M365.145,361.774h5.477l-2.738-6.548l0,0L365.145,361.774z"/>
	<path fill="#3C3C3B" d="M301.569,409.516l-0.476,1.429c-2.144,1.19-4.048,2.024-5.953,2.619c-1.905,0.596-3.571,0.952-5.238,0.952
		c-2.5,0-4.405-0.714-5.834-2.143c-1.31-1.429-2.023-3.334-2.023-5.953c0-2.381,0.476-4.762,1.429-7.143
		c0.952-2.382,2.143-4.406,3.69-6.072c1.548-1.667,3.571-3.096,5.834-4.167c2.262-1.072,4.523-1.548,6.667-1.548
		c1.19,0,2.262,0.119,3.096,0.476c0.952,0.357,1.785,0.833,2.5,1.667c-0.357,0.953-0.834,1.786-1.19,2.619
		c-0.357,0.833-0.715,1.667-1.072,2.5l-1.19,0.357c0-0.238,0-0.357,0-0.595s0-0.476,0-0.714c0-1.429-0.356-2.619-1.19-3.453
		c-0.833-0.833-1.905-1.19-3.333-1.19c-1.311,0-2.501,0.357-3.811,1.071s-2.5,1.786-3.452,3.096
		c-1.19,1.429-2.024,3.214-2.738,5.477c-0.715,2.143-1.071,4.286-1.071,6.429c0,2.263,0.595,4.048,1.666,5.357
		c1.072,1.31,2.619,1.905,4.644,1.905c1.071,0,2.381-0.238,3.929-0.715C297.759,411.421,299.545,410.587,301.569,409.516"/>
	<path fill="#3C3C3B" d="M313.474,409.635c-0.476,0.238-1.071,0.714-1.904,1.31c-2.024,1.429-3.572,2.381-4.524,2.977l-1.19,0.238
		c-0.476-0.357-0.833-0.715-0.952-1.19c-0.238-0.477-0.238-1.072-0.238-1.786c0-1.667,0.238-3.572,0.834-5.834
		c0.595-2.262,1.309-4.048,2.143-5.357c0.476-0.833,1.429-1.786,2.619-2.738c1.31-0.953,2.857-1.786,4.524-2.381h0.356
		c1.19,0,2.263,0.119,3.334,0.238c0.952,0.119,2.023,0.476,2.857,0.833l-1.548,1.786l-2.619,9.763
		c-0.119,0.476-0.238,0.833-0.238,1.19c-0.119,0.356-0.119,0.595-0.119,0.833s0,0.477,0.119,0.596s0.238,0.237,0.477,0.237
		c0.237,0,0.714-0.118,1.31-0.356c0.595-0.238,1.904-0.953,3.81-2.024v1.548c-1.667,1.071-3.215,2.024-4.524,2.857
		s-2.619,1.548-3.81,2.143c-0.238,0-0.477,0-0.596-0.119c-0.119-0.118-0.237-0.237-0.356-0.476c0-0.238,0-0.357-0.119-0.596
		c0-0.238,0-0.356,0-0.595c0-0.357,0-0.715,0.119-1.19C313.237,410.944,313.356,410.349,313.474,409.635 M313.95,407.492
		c0.238-0.596,0.477-1.548,0.834-2.857c0.833-3.096,1.547-5.239,1.904-6.668c-0.833-0.237-1.429-0.356-1.904-0.356
		c-0.477-0.119-0.953-0.119-1.31-0.119c-0.834,0-1.311,0.119-1.786,0.476c-0.357,0.238-0.952,1.072-1.429,2.144
		c-0.596,1.19-1.071,2.619-1.548,4.405c-0.477,1.785-0.714,3.214-0.714,4.404c0,0.477,0.118,0.953,0.356,1.191
		c0.238,0.237,0.477,0.356,0.834,0.356c0.476,0,1.666-0.714,3.571-2.023C313.237,407.968,313.712,407.729,313.95,407.492"/>
	<path fill="#3C3C3B" d="M314.07,426.897l1.31-2.856h1.905c0.238,0,0.476,0,0.833,0c1.429,0,2.381-0.357,2.977-1.191
		c0.357-0.356,0.714-1.31,1.19-2.857c0.477-1.547,1.19-4.523,2.262-8.929l2.857-11.43l-5.119-0.119l1.786-1.19l3.69-0.119
		c0.119-0.356,0.119-0.714,0.238-1.31c0.952-4.286,2.262-7.381,4.048-9.286c1.429-1.548,2.619-2.619,3.81-3.333
		c1.071-0.714,2.263-0.953,3.334-0.953c0.357,0,0.714,0,1.071,0.119c0.357,0,0.833,0.119,1.31,0.119l-1.786,2.619
		c-0.833-0.119-1.429-0.238-1.785-0.238c-0.357,0-0.596-0.119-0.834-0.119c-0.833,0-1.548,0.119-2.023,0.476
		c-0.477,0.238-0.953,0.714-1.19,1.31c-0.357,0.833-1.191,3.81-2.62,9.048l-0.476,1.905l4.881,0.119l-1.666,1.19l-3.691,0.119
		l-2.977,11.549c-0.833,3.333-1.666,5.833-2.262,7.262s-1.31,2.738-2.143,3.691c-0.596,0.833-1.31,1.548-1.905,2.262
		c-0.715,0.714-1.31,1.31-2.024,1.667c-0.356,0.238-0.714,0.476-1.19,0.595c-0.476,0.119-1.071,0.119-2.023,0.119
		c-0.357,0-0.596,0-0.953,0C314.784,426.897,314.427,426.897,314.07,426.897"/>
	<path fill="#3C3C3B" d="M348,408.92v1.311c-2.023,1.31-3.81,2.262-5.596,2.976c-1.785,0.715-3.214,1.072-4.285,1.072
		c-1.311,0-2.263-0.357-2.977-1.191c-0.715-0.714-1.072-1.904-1.072-3.214c0-1.667,0.238-3.453,0.834-5.357
		c0.595-1.905,1.31-3.453,2.262-4.644c1.071-1.429,2.381-2.5,3.929-3.453c1.548-0.952,2.857-1.429,4.048-1.429
		c0.834,0,1.429,0.238,1.905,0.714c0.477,0.477,0.715,1.072,0.715,1.905c0,2.381-3.215,5.357-9.763,9.167l-0.715,0.357
		c0,0.238,0,0.476-0.119,0.595c0,0.238,0,0.477,0,0.834c0,1.071,0.238,1.786,0.715,2.262c0.476,0.477,1.19,0.715,2.143,0.715
		c0.834,0,1.786-0.238,3.096-0.596C344.548,410.468,346.096,409.873,348,408.92 M337.881,405.11c0.595-0.238,1.31-0.595,2.143-1.19
		c0.119-0.119,0.238-0.119,0.238-0.238l1.19-0.833c0.834-0.596,1.548-1.19,2.024-1.905c0.476-0.714,0.714-1.429,0.714-2.143
		c0-0.596-0.119-0.952-0.357-1.19c-0.237-0.238-0.595-0.477-1.071-0.477c-0.833,0-1.785,0.715-2.738,2.262
		C339.191,400.943,338.476,402.849,337.881,405.11 M343.596,392.372c0.714-1.19,1.547-2.5,2.381-3.691
		c0.833-1.19,1.667-2.381,2.5-3.452l1.905,0.595c-1.072,1.31-2.024,2.381-2.977,3.453c-0.952,1.071-1.786,2.143-2.619,3.214
		L343.596,392.372z"/>
	<path fill="#3C3C3B" d="M362.287,409.158v-21.549c0-0.953-0.119-1.429-0.238-1.786c-0.119-0.238-0.477-0.357-1.071-0.357h-2.144
		v-1.19c1.311-0.119,2.382-0.357,3.334-0.595c0.952-0.238,2.024-0.595,3.334-0.953l0.356,0.357l0,0v26.073
		c0,1.31,0.119,2.263,0.357,2.5c0.238,0.357,0.715,0.596,1.548,0.596l1.667,0.119v1.31c-2.024-0.119-3.811-0.119-5.357-0.119
		c-1.548,0-3.215,0-5.358,0.119v-1.31l1.667-0.119c0.834,0,1.31-0.238,1.548-0.596C362.168,411.421,362.287,410.587,362.287,409.158
		"/>
	<path fill="#3C3C3B" d="M376.336,414.159c-1.548,0-2.857-0.477-3.691-1.429c-0.952-0.953-1.429-2.144-1.429-3.81
		c0-1.786,0.596-3.215,1.905-4.286c1.19-1.072,3.096-1.905,5.715-2.382l4.881-0.952v-0.119c0-1.667-0.476-2.977-1.31-3.929
		c-0.952-0.953-2.143-1.429-3.81-1.429c-0.714,0-1.31,0-1.786,0.119h-0.119c-0.356,0.119-0.714,0.238-0.952,0.476
		c-0.238,0.238-0.476,0.595-0.714,0.953l-0.953,2.023l-1.071-0.237v-2.739c1.548-1.071,2.857-1.786,3.929-2.143
		c1.072-0.357,2.144-0.595,3.215-0.595c2.619,0,4.524,0.595,5.477,1.786c1.071,1.19,1.548,3.453,1.548,6.667v7.024
		c0,1.31,0.119,2.263,0.238,2.5c0.119,0.357,0.595,0.596,1.19,0.596l1.429,0.119v1.31c-1.19-0.119-2.263-0.119-3.215-0.119
		s-2.023,0-3.215,0.119c0-1.19,0.119-2.023,0.119-2.619v-0.952l-4.762,3.333l-0.477,0.238
		C377.884,414.04,377.169,414.159,376.336,414.159 M383.598,402.729l-3.214,0.596c-1.905,0.356-3.334,0.952-4.286,1.785
		c-0.952,0.834-1.429,1.786-1.429,3.096c0,0.952,0.357,1.905,0.952,2.5c0.596,0.715,1.429,0.953,2.382,0.953
		c0.952,0,1.904-0.357,2.976-1.072c0.834-0.595,1.667-1.19,2.501-2.023v-5.834H383.598z"/>
	<path fill="#3C3C3B" d="M405.981,408.444v-19.049c0-1.667-0.119-2.738-0.357-3.214c-0.237-0.476-0.833-0.714-1.785-0.714
		l-2.024-0.119v-1.31c2.382,0.119,4.405,0.119,6.191,0.119c1.785,0,3.81,0,6.19-0.119v1.31l-2.023,0.119
		c-0.953,0-1.548,0.238-1.786,0.714s-0.357,1.429-0.357,3.214v7.5l8.453,0.119l8.453-0.119v-7.5c0-1.667-0.119-2.738-0.357-3.214
		s-0.833-0.714-1.785-0.714l-2.024-0.119v-1.31c2.381,0.119,4.405,0.119,6.191,0.119c1.785,0,3.81,0,6.19-0.119v1.31l-2.023,0.119
		c-0.953,0-1.548,0.238-1.786,0.714s-0.357,1.429-0.357,3.214v19.049c0,1.667,0.119,2.738,0.357,3.214
		c0.238,0.477,0.833,0.715,1.786,0.715l2.023,0.119v1.31c-2.381-0.119-4.405-0.119-6.19-0.119c-1.786,0-3.811,0-6.191,0.119v-1.31
		l2.024-0.119c0.952,0,1.547-0.238,1.785-0.715c0.238-0.476,0.357-1.428,0.357-3.214v-9.405c-3.215-0.119-5.953-0.119-8.453-0.119
		s-5.357,0-8.453,0.119v9.405c0,1.667,0.119,2.738,0.357,3.214c0.238,0.477,0.833,0.715,1.786,0.715l2.023,0.119v1.31
		c-2.381-0.119-4.405-0.119-6.19-0.119c-1.786,0-3.81,0-6.191,0.119v-1.31l2.024-0.119c0.952,0,1.548-0.238,1.785-0.715
		C405.862,411.183,405.981,410.111,405.981,408.444"/>
	<path fill="#3C3C3B" d="M464.08,402.134c0,4.167-0.952,7.263-2.857,9.287c-1.905,2.023-4.881,3.095-8.811,3.095
		c-4.167,0-7.143-0.833-9.048-2.381c-1.786-1.548-2.738-4.167-2.738-7.619v-15.001c0-1.667-0.119-2.738-0.357-3.214
		s-0.833-0.714-1.785-0.714l-2.024-0.119v-1.31c2.381,0.119,4.405,0.119,6.191,0.119c1.785,0,3.81,0,6.19-0.119v1.31l-2.023,0.119
		c-0.953,0-1.548,0.238-1.786,0.714s-0.357,1.429-0.357,3.214v14.644c0,2.738,0.715,4.644,2.024,5.953s3.452,1.904,6.31,1.904
		c3.215,0,5.596-0.833,7.024-2.381c1.548-1.548,2.262-4.048,2.262-7.501v-12.62c0-1.667-0.119-2.738-0.356-3.214
		c-0.238-0.476-0.953-0.714-2.024-0.714l-2.262-0.119v-1.31c2.023,0.119,3.81,0.119,5.238,0.119c1.548,0,3.214,0,5.357-0.119v1.31
		l-1.905,0.119c-0.952,0-1.429,0.357-1.666,1.071c-0.238,0.595-0.357,2.262-0.357,4.881v10.596H464.08z"/>
	<path fill="#3C3C3B" d="M470.033,413.802v-1.31l1.666-0.119c0.834,0,1.31-0.238,1.548-0.715c0.238-0.476,0.357-1.428,0.357-3.214
		v-19.049c0-1.667-0.119-2.738-0.357-3.214s-0.833-0.714-1.785-0.714l-2.024-0.119v-1.31c1.19,0.119,2.857,0.119,5,0.119
		c2.144,0,4.167,0,6.072,0c2.738-0.119,5.119-0.119,7.5-0.119c2.263,0,3.691,0.119,4.286,0.119c-0.237,1.19-0.476,2.262-0.476,3.214
		c-0.119,0.953-0.119,2.024-0.119,3.215h-1.548v-3.453c0-0.357-0.596-0.595-1.786-0.833s-2.619-0.476-4.523-0.476
		c-0.715,0-1.429,0-2.144,0c-1.19,0-2.5,0.119-3.929,0.238v11.549c1.786,0.119,3.453,0.119,4.881,0.119
		c2.501,0,4.049-0.119,4.405-0.357c0.357-0.238,0.596-1.429,0.715-3.333h1.19c-0.119,1.905-0.119,3.453-0.119,4.762
		s0,2.977,0.119,4.881h-1.19c-0.119-2.143-0.357-3.333-0.715-3.69c-0.356-0.238-1.785-0.477-4.405-0.477
		c-1.428,0-3.095,0-4.881,0.119v12.024c1.905,0.119,3.69,0.238,5.238,0.238c1.667,0,3.572-0.119,5.596-0.356
		c0.952-0.119,1.667-0.477,1.905-0.953c0.356-0.595,0.595-1.904,0.833-4.048h1.548c-0.238,1.31-0.477,2.5-0.477,3.453
		c-0.119,0.952-0.119,2.143-0.119,3.452c-1.071,0.119-2.856,0.119-5.119,0.119c-2.262,0-4.524,0-6.667-0.119
		s-4.167-0.119-6.072-0.119C472.295,413.563,470.866,413.683,470.033,413.802"/>
	<path fill="#3C3C3B" d="M499.201,408.444v-19.049c0-1.667-0.119-2.738-0.356-3.214c-0.238-0.476-0.834-0.714-1.786-0.714
		l-2.024-0.119v-1.31l6.191,0.119l8.215-0.119c2.977,0,5.238,0.595,6.786,1.667c1.548,1.071,2.262,2.738,2.262,4.762
		c0,2.5-1.071,4.524-3.333,6.072c-1.31,0.953-2.977,1.667-4.882,2.024l5.239,7.024l2.023,2.738c1.31,1.667,2.144,2.738,2.619,3.096
		c0.477,0.356,0.952,0.595,1.429,0.714l0.952,0.119v1.31c-1.19-0.119-2.143-0.119-2.976-0.119c-0.834,0-1.905,0-2.977,0.119
		c-2.381-3.096-4.286-5.834-6.072-7.977c-1.548-2.144-3.571-4.524-5.834-7.382l0.238-0.595h1.548c2.263,0,4.048-0.596,5.596-1.667
		c1.429-1.19,2.144-2.619,2.144-4.286c0-1.905-0.596-3.333-1.786-4.405c-1.19-1.072-2.738-1.548-4.763-1.548
		c-1.666,0-3.214,0.119-4.643,0.476v22.145c0,1.667,0.119,2.738,0.356,3.215c0.238,0.476,0.834,0.714,1.786,0.714l2.024,0.119v1.31
		c-2.382-0.119-4.405-0.119-6.191-0.119s-3.81,0-6.19,0.119v-1.31l2.023-0.119c0.952,0,1.548-0.238,1.786-0.714
		C499.082,411.183,499.201,410.111,499.201,408.444"/>
	<path fill="#3C3C3B" d="M533.133,408.444V386.3h-6.191c-0.952,0-1.667,0.119-1.904,0.238c-0.238,0.238-0.477,0.714-0.477,1.428
		l-0.119,3.096h-1.31c0.119-1.31,0.119-2.5,0.119-3.453s-0.119-2.143-0.238-3.453l12.263,0.119l12.263-0.119
		c-0.238,1.31-0.238,2.5-0.357,3.453c0,0.953,0,2.143,0.119,3.453h-1.31l-0.119-3.096c0-0.714-0.237-1.19-0.476-1.428
		c-0.238-0.238-0.953-0.238-1.905-0.238h-6.19v22.145c0,1.667,0.118,2.738,0.356,3.214c0.238,0.477,0.953,0.715,2.024,0.715
		l2.262,0.119v1.31c-2.619-0.119-4.881-0.119-6.667-0.119c-1.905,0-4.167,0-6.667,0.119v-1.31l2.262-0.119
		c1.071,0,1.786-0.238,2.024-0.715C533.014,411.183,533.133,410.111,533.133,408.444"/>
	<path fill="#3C3C3B" d="M553.134,408.444l10.596-24.526h0.715h0.714l9.287,21.907c1.19,2.857,2.023,4.643,2.5,5.357
		c0.477,0.714,0.952,1.071,1.548,1.19l1.31,0.119v1.31c-2.144-0.119-4.048-0.119-5.596-0.119s-3.453,0-5.596,0.119v-1.31
		l2.023-0.119c0.953,0,1.548-0.238,1.548-0.715c0.119-0.476-0.238-1.428-0.952-3.214l-1.905-4.524h-12.024l-0.952,2.381
		c-1.19,2.619-1.786,4.286-1.786,5.001c0,0.714,0.477,1.071,1.548,1.071l2.143,0.119v1.31c-1.904-0.119-3.452-0.119-4.881-0.119
		s-2.977,0-4.882,0.119v-1.31l1.429-0.119c0.715,0,1.191-0.238,1.548-0.715C551.824,411.183,552.42,410.111,553.134,408.444
		 M558.016,402.134h10.596l-5.238-12.739l0,0L558.016,402.134z"/>
	<path fill="#3C3C3B" d="M245.493,391.419c-1.19,0-3.214,0.119-5.834,2.381c-2.738,2.5-2.976,5.953-2.619,10.954
		c0.357,5,3.096,8.571,3.811,9.762c0.714,1.191,1.19,2.144,1.19,2.382c-0.119,0.237-0.596,3.333-2.024,7.024
		c-1.786,4.285-2.619,6.429-4.881,10.834c-2.738,5.357-2.977,5.833-3.453,6.429c-0.476,0.596-1.667,0.238-2.023,0
		c-0.357-0.238-0.477-1.548-0.596-2.619s-0.357-1.548-0.357-1.548s-0.356,0.477-0.833,1.071c-0.477,0.596-1.905,2.144-2.5,3.334
		c-0.596,1.19-1.667,2.857-2.619,3.096c-0.953,0.237-1.19-0.119-1.786-0.715c-0.596-0.477-1.31-0.952-1.905-1.429
		c-0.476-0.477-0.833-0.119-0.952,0.715c-0.238,0.952-0.357,1.904-0.238,3.333s0.715,1.905,1.31,2.381
		c0.477,0.477,0.477,1.31,0.119,1.667c-0.356,0.357-1.31,0.477-2.381,1.19c-0.952,0.715-2.143,2.857-3.096,3.215
		c-0.833,0.357-1.548,0.477-1.548,0.477c0.477,0.476,0.953,1.429,2.144,1.785c1.19,0.357,2.619-0.476,3.452,0
		c0.715,0.477,0.477,1.548-0.833,2.977c-1.19,1.429-2.5,2.381-4.882,4.882c-2.381,2.5-8.571,6.429-8.571,6.429
		s-1.31-0.238-3.453-0.238c-2.262,0-3.333-0.477-5.715-0.477c-2.5,0-6.905,1.667-9.048,3.453c-2.144,1.786-5.119,5.715-5.953,7.144
		c-0.714,1.31-2.381,4.286-2.977,4.762c-0.595,0.477-2.143,0.834-3.69,1.072c-1.548,0.237-2.262,0.118-2.023-0.119
		c0.237-0.238,1.429-1.191,1.429-1.191c0.833-1.31,2.143-1.904,2.143-3.214c-0.477-0.119-0.596-0.119-1.429,0.356
		c-1.19,0.715-2.143,1.905-2.977,3.215c-0.952,1.31-4.167,3.572-6.31,4.048c-2.144,0.477-6.43,0.238-7.024,0
		c-0.477-0.238-1.19-0.952-2.5-1.667c-1.31-0.714-3.691-1.785-5.834-1.904c-2.024-0.119-4.167-0.477-5.477-1.19
		c-1.429-0.715-3.69-2.382-5.953-3.691c-2.381-1.19-5.596-1.666-6.786-1.429c-1.19,0.238-1.071,0.834-1.071,0.834
		s0.952,1.19,2.143,1.785c1.191,0.715,2.501,1.667,2.263,2.977c-0.238,1.19-1.667,2.144-4.405,2.738
		c-2.619,0.596-6.429,1.19-8.572,1.429c-2.143,0.238-5.119,0-6.429-0.476c-1.31-0.357-1.548-1.548-1.667-2.144
		c0-0.476,0.715-1.429,1.786-2.143c1.19-0.834,2.977-1.19,4.762-1.548c-0.476-0.596-2.023-1.548-4.048-2.143
		c-2.023-0.596-2.738-0.596-4.881-0.357c-2.024,0.119-2.5,0.119-3.453-0.357c0-0.714-0.356-1.667-0.952-2.738
		c-0.477-1.071-2.143-2.738-3.571-3.571c-1.429-0.834-2.263-0.953-2.263-0.834s0.596,1.429,0.834,2.738
		c0.237,1.31,0.356,2.857-0.715,3.929c-1.071,1.072-2.381,0.477-4.167-0.476c-1.785-1.071-1.548-0.953-5-3.334
		c-3.453-2.381-6.548-3.452-6.548-3.452c-2.024-0.834-4.405-2.5-4.644-3.453c-0.238-0.833,0.238-1.667,1.19-2.738
		s1.548-1.904,2.262-3.452c0.715-1.548,0.596-2.144,0.596-2.382c0-0.237-0.477-0.356-1.19-0.237c-0.715,0.119-1.071,0-3.215,0.714
		c-2.143,0.596-4.405,1.071-5.119,0.952c-0.715-0.118-1.429-0.714-1.548-1.31c-0.119-0.595-0.119-2.262-0.238-3.929
		c-0.238-1.667-0.476-2.381-1.19-3.81c-0.595-1.429-1.667-3.096-2.619-4.286s-1.19-0.833-1.19-0.833s0,0.356-0.119,0.952
		c0,0.596-0.119,2.381-0.238,3.452c-0.119,1.072-0.833,2.857-1.667,3.572c-0.952,0.714-1.785-0.238-2.143-1.071
		c-0.357-0.834-1.548-2.501-2.144-3.929c-0.595-1.311-2.023-2.977-2.381-3.691c-0.357-0.714-0.238-1.429-0.119-3.096
		c0.119-1.547-0.119-2.976-0.595-3.929c-0.477-0.952-1.19-1.429-1.31-2.143c-0.119-0.715,0-0.952,0.119-1.786
		c0.237,0,1.785-0.238,2.619-0.357c0.833,0,1.667-0.952,1.904-1.547c0.238-0.477,0-1.191-0.595-1.548
		c-0.477-0.357-2.5-0.953-4.048-0.953c-1.429-0.118-3.215-0.118-3.691-0.356c-0.476-0.238-0.714-1.072-0.714-1.667
		c0-0.596,0-1.19,0-2.738c0-1.667-0.715-3.096-1.19-4.167c-0.477-0.952-1.548-1.19-1.786-1.19s-0.238,0.476-0.119,0.952
		c0.238,0.477,0,1.429-0.476,1.905c-0.477,0.476-1.429,0.356-1.905,0c-0.477-0.357-0.952-1.667-1.667-3.334
		c-0.595-1.548-1.31-3.452-1.667-5.357c-0.356-2.023-0.119-5.119,0.119-7.024c0.238-2.023,0.357-3.452,0.953-5.477
		c0.595-2.143,1.428-2.977,2.262-3.69c0.952-0.715,0.477-1.905,0.477-1.905l-0.477,0.596c-0.477,0.595-1.071,0.595-1.905,0.833
		c-0.714,0.238-1.667-0.714-2.143-1.667c-0.477-0.952-1.905-4.881-2.5-7.857c-0.596-2.976-0.119-6.31,0.237-7.738
		c0.357-1.31,1.786-1.548,2.501-1.31c0.714,0.238,2.262,0.953,3.095,1.31c0.834,0.476,3.453,1.31,4.048,1.428
		c0.596,0.119,0.596-0.476,0.238-1.547c-0.238-0.953-1.904-2.857-3.095-3.691c-1.072-0.833-2.024-1.548-2.382-1.905
		c-0.356-0.357-0.119-1.072,0-1.31c0.119-0.238,1.429-0.833,2.738-1.667s3.096-4.405,3.215-5.596s-0.477-2.381-0.477-2.381
		s-0.714,0.714-1.429,1.429c-0.714,0.714-2.976,1.667-4.286,1.905c-1.31,0.238-1.785-0.238-2.023-1.072
		c-0.238-0.833,0-2.024,0.357-4.405c0.476-2.381,1.666-4.643,3.214-7.62c1.429-2.977,3.334-5.715,3.811-6.548
		c0.476-0.833,1.31-0.953,1.904-0.596c0.715,0.357,0.834,1.191,0.952,2.977c0.119,1.786,0.119,3.333-0.237,4.524
		c0.356-0.238,2.262-1.667,3.333-3.453c1.071-1.905,1.429-5.119,1.31-6.548c0-1.429,0.477-3.572,1.31-4.524
		c0.715-0.953,2.024,0,2.382,0.714c0.476,0.714,1.071,0.952,1.071,0.952s0.238-0.119,0.476-0.714
		c0.238-0.595,0.238-1.786,0.119-2.976c-0.119-1.191-0.476-2.143-0.356-3.81c0.119-1.667,0.833-2.5,2.143-3.214
		c1.429-0.714,3.929-0.357,4.644,0c0.238-0.477,0.238-1.429,0.238-2.381c0-0.952-0.119-1.548-0.953-2.143
		c-0.833-0.595-0.595-1.547-0.595-1.547c-0.119-0.714,0.237-0.596,0.714-1.31c0.477-0.714,1.548-0.833,2.144-0.833
		c0.595,0,1.19,0.119,1.547,0.476c0.238,0.357,0.834,0.833,1.191,1.548c0.356,0.714,0.595,0.833,0.833,0.833
		s0.714-0.238,0.714-0.953s0.119-1.548-0.237-2.857c-0.357-1.31-2.263-1.905-2.857-2.262c-0.715-0.357-0.715-0.357-0.715-1.071
		s0.715-1.31,1.19-1.905c0.477-0.595,2.024-2.262,2.024-2.262c0.833-1.071,0.833-2.143,0.952-3.453s0.715-2.024,0.715-2.024
		s0.595,0.119,1.19,0.119c0.595,0,0.833,0,1.071,0c0.357,0,0.596,0,0.833-0.238c-0.595-0.476-0.595-1.071-0.595-1.667
		s0.357-0.477,1.071-1.191c0.715-0.595,1.19-0.357,1.19-0.238c0.119,0.119,0.715,0.714,1.429,1.071
		c0.715,0.357,2.738,1.429,3.69,1.548c0.953,0.238,3.453,0.119,5.477-0.238c1.905-0.357,2.857-0.714,3.691-1.429
		c0.833-0.714,1.429-1.547,2.381-2.024c0.833-0.595,1.667-0.714,2.381-0.595c0.715,0.119,2.144-0.119,3.215-0.238
		c1.071-0.119,1.548-0.833,2.143-1.072c0.596-0.119,1.667,0,2.144,0c0.714-0.119,0.952-0.119,1.31-0.357
		c-0.596-0.119-0.715-0.238-1.071-0.477c-0.477-0.238-0.715-0.476-1.429-0.833c-0.715-0.357-1.429-0.953-2.5-1.429
		c-1.072-0.477-2.144-0.596-2.857-0.596c-0.715,0-1.905,0.119-1.905-0.119c0-0.238,0.833-0.477,1.19-0.714
		c0.715-0.357,2.381-1.191,3.215-1.548c0.714-0.357,2.5-1.31,2.977-1.905c0.476-0.595,1.904-1.667,2.977-1.905
		c1.071-0.238,2.262-0.238,3.571,0.119c1.31,0.476,3.929,1.667,4.405,2.024c0.476,0.477,0.356,0.595,0.833,0.714
		c0.357,0.119,0.357-0.595,0.238-0.952c-0.119-0.357-0.596-0.833-1.31-1.548c-0.715-0.714-1.31-1.072-1.905-1.429
		c-0.595-0.357-1.548-0.953-1.667-1.429c-0.118-0.476,0-0.833,0.357-1.19c0.357-0.357,1.071-0.476,1.786-0.476
		c0.714,0,1.667-0.596,2.262-1.072c0.596-0.476,1.31-0.476,2.024-0.595c0.833-0.119,1.667,0.119,2.143,0.476
		c0.477,0.357,1.19,1.191,2.381,2.738c1.191,1.548,1.667,2.62,1.667,2.62c0.357,0.714,0.477,0.714,0.477,0.714l0.714-0.119
		c0,0,0.119-0.357-0.118-1.191c-0.238-0.952-0.238-0.952-1.072-2.619c-0.833-1.667-2.143-2.738-2.5-3.929
		c1.19-0.477,6.072-1.429,7.024-0.714c2.738,2.619,6.786,5,10.834,7.024c4.048,1.905,10.715,0,13.572-0.833s4.763-0.714,6.43-0.953
		c-0.238-0.952-0.477-1.31-0.715-2.381c-0.238-1.072,1.071-0.953,2.262-0.833c1.191,0.119,4.286,0.238,6.905,0.833
		c2.738,0.595,2.977,1.905,3.93,3.333c0.952,1.429,3.929,5.119,4.523,5.953c0.596,0.833,1.19,1.548,1.429,1.548
		s0.715-0.119,0.596-0.595c-0.238-0.477-0.357-1.31-1.19-2.857c-0.834-1.548-1.31-2.619-1.786-3.691
		c-0.477-1.071-0.477-1.905,0.238-2.143c0.714-0.238,2.738,0.119,4.643,0.953c1.786,0.833,4.644,2.738,6.311,3.691
		c1.667,0.952,3.452,0.476,4.881,1.548c1.429,1.071,0.953,2.619,1.548,4.048c0.596,1.429,1.429,2.738,1.786,3.929
		s-0.596,1.667-1.548,1.548c-0.952-0.238-1.667-0.596-2.977-0.477c-1.19,0.119-2.143,0.714-2.857,1.429
		c0.596,0.238,0.834,0.595,2.144,1.31s6.31,3.929,9.048,4.167c2.619,0.119,5.477-2.143,5.477-2.143
		c0.715-0.714,1.19-0.476,1.667-0.119c1.429,1.428,13.096,12.977,15.239,15.239c2.143,2.262,4.167,5,4.286,5.715
		c-0.715-0.119-1.548-0.476-2.382-0.357c-0.833,0.119-1.31,0.357-3.571-0.357s-3.215-0.595-4.763,0
		c0.715,0.953,1.191,1.667,2.977,2.977c1.667,1.429,2.144,2.024,4.048,2.738c1.905,0.595,2.857,1.071,3.453,1.786
		c0.119,0.238-0.238,0.595-2.144,1.667c-1.19,0.595-1.19,1.429-2.619,2.381c1.19,0.595,4.763,1.072,7.024,1.072
		c2.144,0,5.001-1.191,5.953-2.024c0.952-0.833,1.19-0.595,2.143,0.595c2.144,2.5,4.048,13.096,4.644,14.882
		c0.595,1.786,0,2.381-0.715,2.738c-0.714,0.357-1.666,0-2.023-0.357c-0.477-0.477-0.952-1.191-1.667-1.786
		c-0.833-0.595-1.548-0.357-1.548-0.357s-0.356,0.952,0,2.5c0.238,0.953,1.429,2.5,1.667,3.333c0.238,0.833-0.238,1.429-1.19,1.548
		c-0.952,0-2.857-0.833-3.69-0.833c-0.953,0-0.715,0.953-0.238,1.667c0.476,0.952,1.548,1.905,1.548,1.905
		c0.952,0.595,2.381,0.357,3.095,1.905c0.238,0.596-0.119,1.429-0.833,2.5c-0.714,1.071-0.952,1.31-1.19,1.547
		c-0.357,0.357-0.715,0.596-1.429,1.31c0.357,0.357,2.143,0.476,3.333,0.238c1.548-0.357,2.382-0.833,3.811-1.786
		s2.381-2.5,3.214-3.214c0.834-0.714,1.072,0.476,1.191,0.833c0.118,0.477,0.356,1.905,0.356,3.81c0,1.786,0.238,5.596,0.477,6.786
		s-0.477,1.548-0.952,1.548c-0.477,0-1.31-0.477-1.905-0.714c-0.477-0.357-1.071-1.31-1.667-1.667c-0.595-0.357-1.071,0-0.833,0.357
		c0.238,0.357,0.595,1.429,1.785,2.738c1.191,1.31,2.857,2.976,3.93,4.405C247.28,390.109,246.684,391.419,245.493,391.419
		 M250.613,388.562c-1.31-2.738-2.023-5.953-1.904-8.811c0-2.857,0-8.453,0-11.548c0-3.095,0.476-3.572,0.476-5.953
		c0-2.381,0.238-7.262,0-10.834c-0.118-2.024-0.952-4.048-1.31-4.405c-0.356-0.357-0.595-0.357-0.714-0.119
		c-0.238,0.357,0.119,0.357,0.119,0.595c0.119,0.238,0.238,2.381,0.357,3.215c0.119,0.833,0.356,2.024,0.237,3.214
		c-0.118,1.19-0.356,2.977-0.714,3.572c-0.477,0.714-0.715,0.714-1.19,0.833c-0.357,0-1.071-0.357-1.071-1.072
		s-1.429-7.62-2.382-10.715c-1.071-3.096-3.69-7.024-4.881-8.096c-1.31-0.953-0.596-1.429-0.357-2.143
		c0.357-0.595,0.715-2.024-0.238-3.81c-1.071-1.667-5.715-6.786-6.667-7.857c-1.071-1.072-1.548-1.429-1.548-1.429
		s-0.119,0.119-0.119,0.476s-0.119,1.905,0.596,4.524c-0.715-0.833-1.19-1.429-1.905-2.262c-0.714-0.833-4.048-5.12-5.596-6.548
		c-1.429-1.429-2.381-2.381-2.976-3.214c-0.596-0.714-1.072-2.381-1.191-3.929c-0.119-1.548,0.119-4.167-0.356-6.191
		c-0.477-2.024-1.31-3.572-1.786-4.048c-0.477-0.476-1.071-0.595-1.429-0.476c-0.357,0.238-0.357,0.357,0.119,1.072
		s0.714,1.31,0.833,2.738c0.238,1.429,0.477,3.453,0.357,4.762s-0.714,2.262-1.667,2.381c-0.833,0.119-1.19-0.476-2.619-1.786
		s-1.667-2.381-1.667-2.738c0-0.357-0.119-1.429,0.238-2.738c0.238-1.31,0.596-2.738,0.596-4.286s-1.19-4.762-2.857-6.072
		s-2.5-1.786-3.215-2.143c-0.714-0.357-0.952-0.119-0.833,0.119s0.238,0.476,0.476,1.429c0.238,0.952,0.357,2.977,0,3.81
		c-0.356,0.714-0.356,1.429-1.428,1.19c-1.191-0.238-1.311-0.595-1.429-1.905c-0.119-1.31-0.357-2.976-1.072-4.643
		c-0.714-1.667-1.666-3.453-2.976-4.286c-1.311-0.952-2.382-1.31-3.334-1.31s-2.144,0.238-2.977,0.714
		c-0.833,0.595-2.023,1.667-2.262,2.143s-0.477,1.071-0.715,1.31c-0.356,0.238-0.356,0.357-1.19,0.357
		c-0.952,0-2.619-0.357-3.215-0.357c-0.595-0.119-0.714-0.595-0.595-0.833c0-0.238,0.238-0.714,0.952-1.19
		c0.596-0.595,1.429-1.071,2.5-1.429c1.072-0.357,1.429-0.595,1.667-0.833c0.238-0.119,0.119-0.595-0.119-0.714
		c-0.238-0.119-1.071-0.357-1.31-0.357c-0.357,0-1.904,0.357-2.857,1.19c-0.952,0.833-1.904,1.548-2.5,1.905
		c-0.595,0.357-0.477,0.595-1.548,0.714c-1.071,0.238-2.143,0.119-2.738,0.119c-0.595,0-1.19-0.357-1.429-0.714
		c-0.238-0.238-0.356-0.476-0.356-0.952c0.118-0.477,0.118-0.953,0.356-1.191c0.238-0.238,1.19-0.238,2.024-0.476
		c0.714-0.357,1.548-1.071,1.667-1.19c0.118-0.119-0.119-0.833-0.596-1.429c-0.596-0.595-1.905-1.429-2.857-1.429
		s-1.905,0.238-2.5,0.714c-0.596,0.476-1.071,0.714-1.667,0.833c-0.595,0-1.071-0.238-1.548-0.833
		c-0.476-0.595-0.714-1.429-1.071-2.5c-0.357-1.072-0.952-1.905-1.786-2.62c-0.714-0.714-1.548-1.31-1.904-1.547
		c-0.357-0.238-0.834,0-0.953,0.595s-0.237,1.31-0.237,2.262c0,0.952,0.118,1.786,0.118,2.619c0,0.714,0.238,2.381-0.714,2.857
		c-0.833,0.595-0.952,0.476-2.143,0.714c-1.191,0.238-2.382,0.119-3.334,0.119s-1.548-0.238-2.619-0.952s-2.738-2.024-4.524-3.096
		c-1.904-1.071-4.405-1.905-7.263-1.905c-2.856,0-4.167,0-5.595,0.476c-1.429,0.595-2.738,1.667-3.811,2.738
		c-1.071,1.072-1.429,1.667-2.5,2.024c-1.071,0.238-2.023,0.238-3.333,0.357c-1.311,0.119-5.001,0.833-6.072,1.31
		s-1.786,0.595-2.857,0.595c0,0-4.524-0.119-9.882,0.714c-5.357,0.714-7.738,1.19-10.477,2.262
		c-2.738,1.071-4.644,2.143-5.238,1.905c-0.596-0.238-1.072-0.714-0.834-1.667c0.238-1.071,0.477-1.428,2.024-2.143
		c1.904-0.952,1.904-2.143,2.857-2.738c-2.738-0.357-5.001-0.119-6.43,0.357c0,0-2.143,0.833-3.929,2.857
		c-1.785,2.024-2.738,3.214-4.048,4.643c-1.31,1.31-5.238,6.31-3.214,11.191c-1.072,0.952-1.311,0.595-2.144,1.071
		c-0.952,0.595-0.952,0.953-1.905,1.786c-0.714,0.596-1.666,0.477-2.262,0.119c-0.595-0.357-1.19-0.476-1.429-1.667
		c-0.238,0.595-0.477,1.667-0.477,1.667s0,1.429,0.477,2.143s1.429,1.072,1.429,2.143c0,1.072,0.357,2.024-1.071,3.691
		c-1.429,1.548-2.619,3.333-3.334,4.167c-0.714,0.714-1.548,0.833-2.143,0.238c-0.477-0.595-0.715-1.31-0.596-2.5
		s0-2.381-0.833-3.333c-0.833-0.953-2.5-2.857-3.215-3.214c0,0-0.952-0.357-0.952,0.238c-0.119,0.714,0.119,0.476,0.357,0.953
		c0.237,0.357,0.476,1.786-0.119,3.69c-0.477,0.477-1.786,1.667-1.905,2.977s0,1.905,0,1.905s-0.477,0.595-1.667,0.238
		s-1.548-1.071-1.904-1.905c-0.357-0.833-0.357-1.072-0.477-2.024c-0.119-0.953-0.357-0.714-0.714-0.714
		c-0.357,0-0.953,0.357-1.667,1.429c-0.715,1.071-0.952,2.619-0.834,3.69c0.119,1.072,0.357,1.905,0.834,2.619
		c0.476,0.714,0.714,1.31,0.595,1.786c0,0.476-0.356,1.19-0.952,1.19c-0.595,0.119-2.5,0-3.452,0.714
		c-0.953,0.833-2.024,2.143-3.096,3.214c-1.071,1.072-1.429,1.905-0.596,2.143c0.953,0.238,2.382,0.357,4.286,0.357
		c2.024-0.119,3.096-0.595,3.81-1.548c0.477-0.357,1.905-0.119,2.024,0.714s0.477,2.143-0.596,2.857
		c-1.071,0.714-1.19,1.548-2.976,1.548c-1.786,0.119-2.857-0.238-5.239-0.596c-2.381-0.357-4.286-0.119-4.881,0
		c-0.596,0.119-0.357,0.357,0,0.833c0.357,0.477,0.714,1.072,1.786,1.905c1.071,0.833,1.666,1.31,2.143,1.429
		c0.357,0.238,0.357,0.477,0.357,0.833c0,0.357,0.119,0.714-0.119,1.072c-0.238,0.476-1.071,1.071-2.619,2.381
		s-2.857,2.5-4.048,4.524s-1.905,3.69-2.144,4.762c-0.238,1.071,0,1.667,0.477,1.667s0.952-0.476,1.429-0.833
		c0.357-0.357,0.595-1.071,1.19-1.071s1.071,0,1.429,0.238c0.357,0.238,0.477,0.833,0.357,1.667s-1.19,2.143-2.024,4.405
		c-0.833,2.262-0.833,3.929-1.071,6.191s-0.357,3.69-0.596,4.286c-0.356,0.714-0.595,1.19-0.952,1.19
		c-1.071-0.833-1.429-2.857-2.381-3.453c-1.071-1.072-1.071-2.262-1.667-2.381c-0.357,0-0.833,1.072-0.833,1.667
		c-0.119,2.381-0.477,2.619-0.357,3.81c0,0.595-0.119,3.691,0.357,5.239c0.595,1.905,1.071,2.143,2.023,3.571
		c0.952,1.429,1.31,1.548,1.19,3.096c0,1.548-0.238,3.929,0.596,7.5c0.833,3.572,2.262,7.143,2.977,9.644
		c0.714,2.5,1.19,4.643,1.31,6.786c0.119,2.143,0.238,4.285,0.119,5.238c-0.119,0.952-0.596,1.429-1.19,1.429
		c-0.596,0-0.953-0.596-1.429-1.19c-0.477-0.596-0.357-1.072-0.357-1.072s0.833-1.429,0.833-3.214c0-1.786,0.357-4.167-1.31-5.477
		s-2.738-1.429-4.167-1.429s-4.405,0.476-4.643,4.881c0,0,0,2.738,0.833,4.405c0.952,1.667,2.5,2.857,3.452,3.215
		c0.953,0.237,2.024,0.119,2.857,0c0.715-0.119,0.953-0.357,1.191-0.119c0.237,0.238,1.666,1.548,2.738,3.452
		c1.071,1.786,2.5,4.882,3.095,6.43c0.596,1.547,0.834,1.666,0.953,2.619c0.118,0.833,0.237,1.429-0.119,1.666
		c-0.477,0.357-1.072,0.596-1.905,0.596s-2.143-0.833-3.096-0.833c0,0-2.262,0-3.095,0.476c-0.834,0.477-0.834,0.477-0.477,0.953
		c0.238,0.356,0.595,0.476,1.548,0.952c0.952,0.477,2.143,1.429,3.096,2.738c0.952,1.19,1.31,1.19,1.785,1.429
		c0.477,0.238,0.477,1.19,0.357,1.786c-0.119,0.476-0.715,1.071-1.071,1.666c-0.238,0.596-0.477,0.715-0.477,1.548
		c0,0.834,0.119,1.31,0.715,2.5c0.476,1.072,0.952,1.429,1.071,1.429c0.238,0,0.714-0.476,0.833-0.952
		c0.238-0.477,0.477-0.952,0.715-0.952c0.237,0,0.595-0.238,0.952,0s0.833,0.714,0.833,1.429c0,0.714-0.119,1.429,0.477,2.738
		c0.596,1.429,1.31,2.143,2.024,2.619c0.714,0.477,0.952,0.595,1.071,0c0.119-0.596,0.595-1.905,1.429-2.619
		c0.714-0.715,1.429-1.19,2.143-1.19c0.715,0,1.071,0,1.548,0.952s3.334,4.405,4.167,5.596c0.833,1.31,0.952,1.19,1.071,2.143
		c0.119,0.953,0.119,1.905,0.834,2.738c0.714,0.834,1.904,2.382,2.738,2.857c0.714,0.477,1.548,1.667,1.904,2.5
		c0.238,0.834,0.238,1.072-0.476,1.548c-0.715,0.477-2.263,0.952-3.93,0.715c-1.666-0.238-2.381-0.238-2.143,0.714
		c0.238,0.834,1.071,1.667,2.143,2.738c1.072,1.071,2.738,2.738,3.93,3.334c1.19,0.595,2.023,0.238,3.571,0s2.262-0.715,3.929,0.356
		c1.667,1.072,6.667,4.167,8.215,5.001c1.548,0.833,2.263,0.714,4.167,1.667c1.905,0.952,5,3.333,7.263,4.881
		c2.262,1.548,4.762,3.215,5.834,3.81c1.19,0.596,1.429,0.834,3.452,0.834c0.238,1.31,0.238,2.023,0.238,3.214
		c0,1.31,0.714,2.144,1.905,3.215c1.19,1.071,2.143,1.429,2.738,1.786c0.595,0.357,0.952,0,0.952-0.953c0,0-0.119-1.31-0.119-1.904
		c0-0.596,0.357-1.071,0.952-1.19c0.477-0.119,0.834-0.119,1.548,0.238c0.715,0.237,1.905,0.714,3.215,0.833
		c1.429,0.238,8.215,0.596,11.667,0.357c3.453-0.238,6.43-0.357,7.382-0.357s2.143,0.357,2.262,1.071
		c0.238,0.715,0.357,0.834,0.238,1.786s-0.714,1.905-0.595,2.857c0.118,1.429,0.952,3.333,1.666,4.167
		c0.715,0.833,1.905,1.904,4.048,1.904c2.144,0,4.882-0.952,6.191-2.619c1.31-1.666,2.143-3.095,3.096-3.929
		c0.952-0.833,2.143-1.31,3.452-1.548s3.096-0.714,3.929-1.548c0.834-0.833,1.19-1.785,1.31-2.262c1.548,0,3.691-0.119,5.357-0.119
		c1.667,0,3.811-0.357,4.882-1.071c1.19-0.714,1.548-0.952,2.143-1.19c0.715-0.238,2.263-0.238,2.977-0.238
		c0.715,0,1.786,0,2.5,0.119c0.715,0.119,0.953,0.477,0.953,1.19c0,0.715-0.238,1.429-0.596,2.262
		c-0.357,0.834-0.714,1.072-0.833,1.667c-0.238,0.596-0.119,1.19-0.119,1.19s0.238,0.477,1.071-0.238
		c0.952-0.595,2.381-1.19,4.167-1.785c1.429-0.477,4.405-0.477,8.929-2.263c0,0,6.191-2.619,11.43-10.119
		c1.429-2.024,2.381-3.691,2.977-4.763c0,0,1.19-1.667,2.619-2.381s4.048-2.381,4.882-3.096c0.714-0.714,1.19-1.19,1.666-1.429
		c0.477-0.238,0.834,0.238,1.072,0.596c0.237,0.357,0.595,0.714,0.237,1.667c-0.356,0.952-0.595,1.547-0.595,2.381
		c0,0.833,0.119,1.071,0.238,1.548c0.119,0.476,0.356,0,0.714-0.357c0.833-0.833,1.667-1.667,2.262-3.334
		c0.596-1.785,0.715-3.214,0.715-4.643c0-1.548-0.238-2.977-0.238-3.929c1.31-1.31,2.619-2.619,3.81-3.691
		c0.953,0.238,2.024,0.715,3.096-0.119c0.952-0.714,2.262-1.547,2.857-2.143c0.596-0.477,0.952-0.952,2.143-0.477
		c1.191,0.596,2.144,1.31,2.738,1.786c0.596,0.477,1.072,0.834,1.429,1.548c0.357,0.714,0.119,1.19,0.477,1.19
		s0.833-0.238,1.19-1.19s1.071-2.262,0.834-3.215c-0.238-0.833-0.596-1.429-0.596-2.143c0-0.715,0-1.548,0.357-1.905
		c0.238-0.357,0.714-0.357,1.19-0.119s0.952,0.596,1.19,0.953c0.238,0.237,0.715,0.714,0.715,0.952
		c0.118,0.238,0.476,0.238,0.595-0.119s0.477-1.31,0.357-2.738s-0.596-2.5-1.786-3.334c-1.19-0.833-1.905-0.952-2.381-1.31
		c-0.477-0.356-0.952-1.071-0.952-1.547c0-0.477,0.476-1.667,0.714-2.144c0.715-1.071,0.833-1.19,2.143-0.833
		c1.311,0.356,2.382,1.19,2.857,1.429c0.477,0.356,1.786,0.595,2.857,0.237c0.834-0.356,1.905-0.833,2.857-2.143
		c0.953-1.31,1.786-3.571,1.905-5.357c0-1.905-0.715-3.215-2.144-3.929c-1.429-0.715-2.143-1.19-2.738-1.19
		c-0.476,0-1.429-0.596-1.31-1.19c0.119-0.596,1.905-4.524,2.382-5.834c0.476-1.31,1.429-3.691,1.547-3.929
		c0.119-0.238,0.477,1.429,0.953,1.904c0.476,0.477,0.833,1.31,0.833,2.024c0,0.714,0,1.071-0.119,1.548
		c0,0.476-0.119,0.833-0.119,0.833s0.238,0.119,0.834-0.357c0.356-0.356,2.977-3.452,4.405-5.715
		c1.428-2.143,4.762-6.31,5.357-11.071c0.595-4.763,0.237-9.763-1.31-12.978C253.827,394.039,251.923,391.419,250.613,388.562"/>
	<path fill="#3C3C3B" d="M143.581,509.403c-66.076,0-119.532-53.575-119.532-119.532c0-66.076,53.575-119.532,119.532-119.532
		c66.076,0,119.532,53.575,119.532,119.532C263.114,455.828,209.657,509.403,143.581,509.403 M143.581,266.529
		c-68.1,0-123.223,55.123-123.223,123.223s55.123,123.223,123.223,123.223c68.101,0,123.224-55.123,123.224-123.223
		C266.805,321.771,211.682,266.529,143.581,266.529"/>
	<path fill="#3C3C3B" d="M144.891,328.319c0,0-7.262,7.263-12.382,9.882c-5.119,2.5-9.524,2.857-15.477-1.31
		c0,0-3.215-2.977-4.882-4.405s-4.762-2.262-6.905-1.071c0,0-2.5,1.786-4.405,4.167c-1.904,2.262-1.547,3.095-1.904,5.477
		c-0.357,2.381,0,2.976-2.381,4.643c-2.382,1.667-6.787,4.048-9.168,7.024c-2.262,2.976-3.096,5.833-3.452,9.524
		c0,0-7.024,3.333-10.478,12.144c-2.023,4.881-2.023,8.334-2.143,12.025c-0.119,3.69,1.19,10.596,3.69,15.239
		c2.5,4.643,10.001,14.882,23.216,19.287c5.477,1.548,14.764,1.904,22.621-2.857c7.738-4.763,10.834-8.215,17.382-19.168
		c0,0,0.357-2.143-1.31-1.071c-1.071,1.071-5.357,5-8.81,7.977c-3.453,2.977-8.691,8.453-16.43,8.334
		c-9.049-0.119-15.002-5.834-19.406-9.287c-4.286-3.452-9.406-11.667-10.001-22.025c-0.596-10.358-0.119-11.787,0.477-13.691
		c0.476-1.905,2.262-3.929,5.357-2.977c3.095,0.953,10.238,5,13.215,7.858c3.096,2.857,5.357,4.762,5.238,7.62
		c0,1.905-0.119,2.738-1.31,4.524c-1.19,1.667-2.619,3.572-2.977,4.524c-0.356,0.952-0.237,1.19,0.238,1.667
		c0.357,0.357,1.548,0.476,3.572-1.19c2.262-1.905,9.405-9.524,10.596-14.644c1.19-5.119,0.357-9.644-1.786-12.382
		c-2.262-2.738-7.144-5.238-10.238-7.024c-2.977-1.905-4.286-3.453-4.524-4.762s-0.238-2.381-0.238-3.453
		c0.119-1.547,0.715-2.738,2.262-1.905c0,0,2.144,1.31,4.644,2.5c2.619,1.31,5.477,2.143,9.644,1.905
		c4.167-0.238,7.738-0.714,12.739-4.405c5-3.691,13.096-11.31,16.905-17.978C146.2,328.438,146.439,326.771,144.891,328.319"/>
	<path fill="#3C3C3B" d="M206.324,356.774c0,0-3.334,3.095-6.43,5c0,0-3.214,3.453-7.5,3.453s-5.357,0-6.786-1.191
		c-1.31-0.714-2.263-1.19-11.311-9.405c0,0-0.715-0.953-2.143-0.833c-0.596,0-1.191,0.595-2.382,2.024
		c-1.429,1.786-6.071,9.167-10.596,14.406c-4.524,5.239-10.12,10.477-13.453,15.001c-2.382,3.214-2.857,5.595-2.977,7.381
		c-0.119,2.619,0.357,3.453,1.905,5.476c1.547,2.024,6.429,4.763,8.69,6.786c2.263,2.024,5.715,4.524,6.43,6.072
		c0.714,1.667,1.071,3.453-0.238,5c-1.19,1.548-1.548,1.667-3.096,1.667c-1.429,0-1.905-0.119-2.5-0.357
		c-0.834-1.31-4.882-5.714-10.597-6.071c-3.69-0.238-8.333-0.119-14.048,3.929s-11.072,10.477-11.311,21.192
		c0,0-0.357,8.81,5.715,14.524c0,0,5.477,6.31,14.286,5.953c8.811-0.238,17.621-4.286,22.383-15.12c0,0,0.833-1.548,1.071-2.263
		c0.238-0.714-0.356-1.429-0.714-1.429s-0.953,0-1.31,0.953c-0.119,0.356-3.572,7.5-10.953,8.452
		c-6.311,0.834-11.072-0.476-13.572-2.262c-2.144-1.548-4.644-4.167-5.239-8.691c0,0-0.237-3.81-1.071-5.952
		c-0.714-2.144-1.071-3.69-1.071-5.119c0.119-2.382,2.023-3.93,4.048-4.644c2.262-0.715,3.929-0.715,5.119-0.477
		c1.786,0.238,4.286,1.31,5.715,3.691c0,0,2.857,5,4.763,6.071c1.904,1.19,4.643,1.548,6.667,1.19
		c2.023-0.356,4.524-2.381,5.238-3.452s0.596-2.381,0.119-3.69c-0.596-1.311-1.19-2.024-1.429-2.501
		c-0.238-0.476-0.119-1.31,0.119-1.666c0.238-0.357,0.952-0.596,1.905-0.477c1.071-0.119,3.214-0.952,4.643-2.5
		s4.048-4.882,6.191-7.501c2.143-2.738,4.048-4.881,5.119-5.834c1.071-0.952,4.286-2.143,6.429-0.476
		c1.905,1.548,7.501,7.381,5.357,12.739c-0.595,1.428-2.023,2.5-4.167,3.69c-1.31,0.714-3.333,1.786-5.357,1.786
		c-2.023,0-2.977,1.071-3.333,1.428c-0.715,0.596-1.19,1.429-0.477,2.144c1.071,0.952,4.167,3.571,6.31,4.644
		c1.905,1.071,4.167,2.023,8.215,2.143s10.12,0,16.668-3.571c0,0,2.024-1.429,3.691-3.096c1.548-1.667,2.976-4.405,3.095-9.524
		c0-0.715-0.237-1.548-1.071-1.19c-0.714,0.237-1.19,1.666-2.023,2.738c-0.715,1.071-1.667,2.262-2.857,3.214
		c-1.19,0.953-3.572,1.429-5.477,1.548c-1.786,0.119-3.81-0.119-4.763-0.119c-0.952,0-1.786-0.714-1.786-1.429
		c0-0.714,0.715-1.904,2.263-3.214c1.548-1.191,5.596-6.072,6.429-8.334c0.834-2.263,0.952-3.572,0.834-5.239
		c-0.119-1.666-1.905-9.167-13.097-13.691c0,0-3.69-2.262-10.001-0.595c-3.095,0.952-2.976,1.429-4.404,2.738
		c-1.429,1.19-2.144,2.381-2.857,3.095c-0.715,0.714-2.024,0.953-3.215,0.714c-1.19-0.119-1.786-0.357-3.929-1.786
		c-2.144-1.429-5.119-3.333-6.429-4.881c-1.311-1.429-2.024-2.381-2.024-4.286s0.477-3.929,1.667-6.548s1.785-4.048,2.738-5.357
		c0.952-1.31,2.5-1.905,3.81-1.905s1.429-0.238,3.929,1.548s4.882,3.333,6.548,4.286c1.548,0.952,3.691,2.5,9.524,0.833
		c5.834-1.667,11.549-5.596,14.764-8.572c3.214-2.977,7.144-8.929,8.215-10.715c0.595-1.191,0.476-2.143,0.119-2.381
		C208.11,356.06,207.277,355.94,206.324,356.774"/>
	<path fill="#3C3C3B" d="M143.581,473.33c-46.074,0-83.458-37.384-83.458-83.458s37.384-83.458,83.458-83.458
		c46.075,0,83.459,37.384,83.459,83.458S189.656,473.33,143.581,473.33 M143.581,302.841c-47.979,0-86.91,38.932-86.91,86.911
		c0,47.98,38.931,86.911,86.91,86.911s86.911-38.931,86.911-86.911C230.492,341.773,191.561,302.841,143.581,302.841"/>
	<g>
		<path fill="#3C3C3B" d="M354.668,443.685c-2.382,0-4.286-0.714-5.715-2.023s-2.144-3.096-2.144-5.357
			c0-2.144,0.834-3.93,2.382-5.358c1.547-1.428,3.69-2.023,6.19-2.023c0.833,0,1.667,0.119,2.619,0.238s1.667,0.357,2.381,0.595
			c-0.118,0.596-0.237,1.072-0.237,1.548c0,0.477-0.119,0.953-0.119,1.548h-0.596v-1.19c0-0.238,0-0.357-0.119-0.477
			c0-0.119-0.119-0.238-0.357-0.238c-0.476-0.237-0.952-0.476-1.547-0.714c-0.715-0.238-1.548-0.357-2.263-0.357
			c-1.904,0-3.452,0.477-4.523,1.548c-1.072,1.071-1.548,2.5-1.548,4.405c0,2.143,0.595,3.929,1.666,5.119
			c1.191,1.31,2.738,1.905,4.644,1.905l0,0c0.715,0,1.429-0.119,2.144-0.238c0.356-0.119,0.595-0.238,0.714-0.357
			s0.119-0.476,0.119-0.833v-1.905c0-0.357,0-0.714-0.119-0.833s-0.238-0.238-0.596-0.238l-1.666-0.119v-0.596
			c0.952,0,1.785,0,2.5,0c0.714,0,1.548,0,2.5,0v0.477l-0.357,0.119c-0.238,0.119-0.356,0.119-0.356,0.238s0,0.357,0,0.714v3.334
			C357.882,443.327,356.096,443.685,354.668,443.685L354.668,443.685z"/>
		<path fill="#3C3C3B" d="M365.383,434.041v6.072c0,0.833,0.119,1.548,0.476,1.904c0.357,0.357,0.953,0.477,1.667,0.477
			c0.596,0,1.19-0.238,1.667-0.833c0.238-0.238,0.477-0.596,0.595-0.834c0-0.119,0.119-0.238,0.119-0.356c0-0.119,0-0.238,0-0.357
			v-3.334c0-0.714,0-1.071-0.119-1.31c-0.118-0.119-0.356-0.238-0.714-0.238h-0.833v-0.595c0.595-0.119,1.19-0.238,1.547-0.357
			c0.477-0.119,0.953-0.238,1.548-0.477l0.238,0.119l0,0v7.144c0,0.596,0,1.071,0.119,1.19s0.357,0.238,0.715,0.238h0.714v0.596
			c-0.596,0-1.19,0-1.667,0c-0.476,0-1.071,0-1.667,0c0-0.357,0-0.715,0.119-0.953v-0.833c-0.952,0.952-1.666,1.429-1.904,1.667
			c-0.477,0.357-1.071,0.476-1.786,0.476c-0.952,0-1.667-0.237-2.143-0.714c-0.477-0.477-0.596-1.19-0.596-2.262v-4.048
			c0-0.715,0-1.072-0.119-1.311c-0.119-0.118-0.357-0.237-0.714-0.237h-0.834v-0.596c0.596-0.119,1.19-0.238,1.548-0.357
			c0.477-0.119,0.952-0.238,1.548-0.476L365.383,434.041L365.383,434.041z"/>
		<path fill="#3C3C3B" d="M376.931,443.565c-0.714,0-1.31-0.238-1.785-0.714c-0.477-0.477-0.715-1.071-0.715-1.786
			c0-0.833,0.238-1.548,0.834-2.023c0.595-0.477,1.547-0.953,2.738-1.072l2.262-0.476v-0.119c0-0.834-0.238-1.429-0.596-1.905
			c-0.476-0.476-1.071-0.595-1.785-0.595c-0.357,0-0.596,0-0.834,0l0,0c-0.238,0-0.356,0.119-0.476,0.237
			c-0.119,0.119-0.238,0.238-0.357,0.477l-0.477,0.952l-0.476-0.119v-1.19c0.714-0.476,1.31-0.833,1.785-1.071
			c0.477-0.238,0.953-0.238,1.548-0.238c1.31,0,2.144,0.238,2.619,0.834c0.477,0.595,0.715,1.666,0.715,3.095v3.334
			c0,0.596,0,1.071,0.119,1.19s0.237,0.238,0.595,0.238h0.596v0.596c-0.596,0-1.071,0-1.548,0s-0.952,0-1.548,0
			c0-0.596,0-0.953,0-1.31v-0.477l-2.262,1.548l-0.238,0.119C377.765,443.446,377.407,443.565,376.931,443.565 M380.384,438.089
			l-1.548,0.238c-0.952,0.119-1.548,0.477-2.024,0.834c-0.476,0.356-0.595,0.833-0.595,1.547c0,0.477,0.119,0.834,0.477,1.191
			c0.237,0.356,0.714,0.476,1.071,0.476c0.476,0,0.952-0.119,1.429-0.476c0.356-0.238,0.714-0.596,1.19-0.953V438.089z"/>
		<path fill="#3C3C3B" d="M390.503,436.66v-0.356c0-0.238,0-0.596-0.118-0.715c-0.119-0.238-0.238-0.357-0.477-0.477
			c-0.119-0.118-0.357-0.237-0.477-0.237c-0.476-0.119-0.833-0.238-1.31-0.238c-0.595,0-1.071,0.119-1.31,0.476
			c-0.357,0.238-0.477,0.715-0.477,1.191c0,0.476,0.119,0.833,0.477,1.071s0.952,0.476,1.905,0.595
			c1.19,0.238,2.023,0.477,2.5,0.953c0.477,0.356,0.714,0.952,0.714,1.548c0,1.071-0.476,1.904-1.31,2.5
			c-0.833,0.595-1.904,0.952-3.333,0.952c-0.357,0-0.834,0-1.31-0.119c-0.477-0.119-0.953-0.238-1.429-0.357
			c0.119-0.595,0.119-1.071,0.119-1.429c0-0.356,0-0.833,0-1.429h0.595v0.834c0,0.238,0,0.357,0.119,0.476
			c0.119,0.119,0.119,0.357,0.238,0.357c0.238,0.238,0.477,0.357,0.715,0.477c0.356,0.238,0.952,0.238,1.429,0.238
			c0.714,0,1.31-0.119,1.785-0.477c0.477-0.357,0.715-0.833,0.715-1.31s-0.119-0.833-0.477-1.071s-0.952-0.477-1.905-0.596
			c-1.19-0.238-2.023-0.595-2.5-0.952c-0.476-0.357-0.714-0.952-0.714-1.786c0-0.833,0.356-1.548,1.071-2.023
			c0.714-0.477,1.548-0.715,2.738-0.715c0.357,0,0.833,0,1.31,0.119s0.952,0.238,1.31,0.357c0,0.476-0.119,0.833-0.119,1.071
			c0,0.357,0,0.714,0,1.19h-0.477V436.66z"/>
		<path fill="#3C3C3B" d="M400.981,442.375l-0.477,0.715c-0.476,0.238-0.833,0.356-1.31,0.476s-0.833,0.119-1.429,0.119
			c-1.429,0-2.5-0.476-3.333-1.31c-0.834-0.833-1.31-2.023-1.31-3.452c0-0.715,0.118-1.429,0.476-2.144
			c0.357-0.714,0.715-1.19,1.31-1.548c0.238-0.119,0.477-0.356,0.834-0.476c0.356-0.119,0.595-0.357,0.952-0.477
			s0.714-0.238,1.071-0.357s0.596-0.119,0.952-0.119c0.477,0,0.834,0.119,1.31,0.238c0.477,0.119,0.834,0.357,1.072,0.477
			c-0.119,0.477-0.238,0.833-0.238,1.19s-0.119,0.715-0.119,1.19h-0.596l-0.119-1.071c0-0.119,0-0.119,0-0.238l-0.118-0.119
			c-0.238-0.238-0.477-0.356-0.834-0.476s-0.714-0.238-1.19-0.238c-0.952,0-1.667,0.238-2.143,0.833
			c-0.477,0.596-0.834,1.31-0.834,2.381c0,1.429,0.357,2.501,1.071,3.334c0.715,0.833,1.548,1.19,2.738,1.19
			c0.357,0,0.715,0,1.072-0.119c0.356-0.119,0.714-0.238,1.071-0.476L400.981,442.375z"/>
		<path fill="#3C3C3B" d="M404.79,443.565c-0.714,0-1.31-0.238-1.786-0.714c-0.476-0.477-0.714-1.071-0.714-1.786
			c0-0.833,0.238-1.548,0.833-2.023c0.596-0.477,1.429-0.953,2.738-1.072l2.263-0.476v-0.119c0-0.834-0.238-1.429-0.596-1.905
			c-0.477-0.476-1.071-0.595-1.786-0.595c-0.356,0-0.595,0-0.833,0l0,0c-0.238,0-0.357,0.119-0.477,0.237
			c-0.119,0.119-0.238,0.238-0.356,0.477l-0.477,0.952l-0.477-0.119v-1.19c0.715-0.476,1.31-0.833,1.786-1.071
			s0.952-0.238,1.548-0.238c1.31,0,2.143,0.238,2.619,0.834c0.477,0.595,0.714,1.666,0.714,3.095v3.334c0,0.596,0,1.071,0.119,1.19
			s0.238,0.238,0.596,0.238h0.595v0.596c-0.595,0-1.071,0-1.547,0c-0.477,0-0.953,0-1.548,0c0-0.596,0-0.953,0-1.31v-0.477
			l-2.263,1.548l-0.237,0.119C405.505,443.446,405.148,443.565,404.79,443.565 M408.243,438.089l-1.548,0.238
			c-0.953,0.119-1.548,0.477-2.024,0.834c-0.476,0.356-0.595,0.833-0.595,1.547c0,0.477,0.119,0.834,0.476,1.191
			c0.357,0.356,0.715,0.476,1.071,0.476c0.477,0,0.953-0.119,1.429-0.476c0.357-0.238,0.715-0.596,1.191-0.953V438.089z"/>
		<polygon fill="#3C3C3B" points="417.768,437.494 423.125,437.494 422.53,438.923 417.172,438.923 		"/>
		<path fill="#3C3C3B" d="M442.055,441.542l-0.596,1.071c-0.952,0.477-1.785,0.714-2.381,0.833
			c-0.595,0.119-1.429,0.238-2.262,0.238c-2.263,0-4.167-0.714-5.596-2.023s-2.144-3.096-2.144-5.239
			c0-2.143,0.834-3.929,2.382-5.357s3.571-2.023,5.952-2.023c0.715,0,1.548,0.119,2.382,0.238c0.833,0.119,1.547,0.356,2.262,0.595
			c-0.119,0.596-0.238,1.071-0.238,1.548s-0.119,0.952-0.119,1.548h-0.595v-1.31c0-0.238,0-0.357-0.119-0.477
			c0-0.119-0.119-0.238-0.357-0.356c-0.357-0.238-0.833-0.477-1.429-0.715c-0.715-0.238-1.429-0.357-2.262-0.357
			c-1.786,0-3.215,0.596-4.167,1.667c-1.072,1.071-1.548,2.619-1.548,4.524c0,2.023,0.595,3.571,1.786,4.881
			c1.19,1.19,2.738,1.786,4.762,1.786c0.715,0,1.548-0.119,2.262-0.357c0.715-0.238,1.429-0.476,1.905-0.833L442.055,441.542z"/>
		<path fill="#3C3C3B" d="M444.793,442.256c-0.833-0.952-1.31-2.143-1.31-3.571s0.477-2.619,1.429-3.453
			c0.952-0.952,2.143-1.31,3.69-1.31c1.31,0,2.5,0.477,3.334,1.31c0.833,0.834,1.31,1.905,1.31,3.334
			c0,1.548-0.477,2.857-1.429,3.81s-2.144,1.429-3.69,1.429C446.817,443.685,445.626,443.209,444.793,442.256 M450.627,442.018
			c0.476-0.714,0.714-1.666,0.714-2.856c0-1.429-0.238-2.62-0.833-3.334c-0.596-0.833-1.31-1.19-2.381-1.19
			c-0.834,0-1.548,0.357-2.024,0.952c-0.477,0.596-0.714,1.429-0.714,2.619c0,1.548,0.237,2.738,0.833,3.691
			c0.595,0.952,1.31,1.31,2.381,1.31C449.437,443.09,450.151,442.732,450.627,442.018"/>
		<path fill="#3C3C3B" d="M455.985,441.185v-10.239c0-0.476,0-0.714-0.119-0.833s-0.238-0.238-0.477-0.238h-0.952v-0.595
			c0.596-0.119,1.19-0.119,1.548-0.238c0.476-0.119,0.952-0.238,1.548-0.477l0.238,0.119l0,0v12.501c0,0.596,0,1.071,0.118,1.19
			c0.119,0.119,0.357,0.238,0.715,0.238h0.833v0.596c-0.952,0-1.785,0-2.5,0c-0.714,0-1.548,0-2.5,0v-0.596h0.833
			c0.357,0,0.596-0.119,0.715-0.238C455.985,442.256,455.985,441.899,455.985,441.185"/>
		<path fill="#3C3C3B" d="M461.699,442.256c-0.834-0.952-1.31-2.143-1.31-3.571s0.476-2.619,1.429-3.453
			c0.952-0.952,2.143-1.31,3.69-1.31c1.31,0,2.5,0.477,3.333,1.31c0.834,0.834,1.311,1.905,1.311,3.334
			c0,1.548-0.477,2.857-1.429,3.81c-0.953,0.952-2.144,1.429-3.691,1.429C463.604,443.685,462.532,443.209,461.699,442.256
			 M467.532,442.018c0.477-0.714,0.715-1.666,0.715-2.856c0-1.429-0.238-2.62-0.833-3.334c-0.596-0.833-1.311-1.19-2.382-1.19
			c-0.833,0-1.548,0.357-2.023,0.952c-0.477,0.596-0.715,1.429-0.715,2.619c0,1.548,0.238,2.738,0.834,3.691
			c0.595,0.952,1.31,1.31,2.381,1.31C466.342,443.09,467.057,442.732,467.532,442.018"/>
		<path fill="#3C3C3B" d="M472.772,441.185v-4.405c0-0.714,0-1.071-0.119-1.31c-0.119-0.119-0.357-0.238-0.715-0.238h-0.833v-0.595
			c0.595-0.119,1.19-0.238,1.548-0.357c0.476-0.119,0.952-0.238,1.548-0.477l0.237,0.119l0,0v1.548
			c0.834-0.714,1.31-1.19,1.548-1.429c0.357-0.238,0.834-0.357,1.31-0.357c1.072,0,1.905,0.238,2.5,0.834
			c0.238,0.238,0.477,0.595,0.596,1.071c0.833-0.833,1.429-1.31,1.667-1.548c0.357-0.238,0.833-0.357,1.31-0.357
			c1.071,0,1.904,0.238,2.5,0.834c0.596,0.595,0.833,1.429,0.833,2.619v3.929c0,0.596,0,1.071,0.119,1.19s0.357,0.238,0.715,0.238
			h0.833v0.596c-0.595,0-1.19,0-1.666,0c-0.477,0-1.072,0-1.667,0v-0.596v-5c0-0.834-0.119-1.548-0.477-1.905
			c-0.357-0.477-0.833-0.714-1.429-0.714c-0.595,0-1.19,0.237-1.667,0.714c-0.237,0.119-0.356,0.357-0.476,0.596
			c0,0.119-0.119,0.238-0.119,0.356c0,0.119,0,0.238,0,0.357v4.167c0,0.596,0,1.071,0.119,1.19s0.356,0.238,0.714,0.238h0.834v0.596
			c-0.953,0-1.786,0-2.501,0c-0.714,0-1.547,0-2.5,0v-0.596h0.834c0.356,0,0.595-0.119,0.714-0.238s0.119-0.595,0.119-1.19v-3.452
			c0-0.834-0.119-1.548-0.477-1.905c-0.356-0.477-0.833-0.714-1.429-0.714c-0.595,0-1.19,0.237-1.666,0.714
			c-0.238,0.238-0.357,0.357-0.477,0.596c0,0.118-0.119,0.237-0.119,0.356s0,0.238,0,0.357v4.167c0,0.596,0,1.071,0.119,1.19
			s0.357,0.238,0.714,0.238h0.834v0.596c-0.952,0-1.786,0-2.5,0c-0.715,0-1.548,0-2.501,0v-0.596h0.834
			c0.357,0,0.595-0.119,0.714-0.238C472.772,442.256,472.772,441.899,472.772,441.185"/>
		<path fill="#3C3C3B" d="M489.915,430.945c0-0.476,0-0.714-0.119-0.833s-0.238-0.238-0.476-0.238h-0.953v-0.595
			c0.596-0.119,1.19-0.119,1.548-0.238c0.477-0.119,0.952-0.238,1.548-0.477l0.238,0.119l0,0v7.024
			c0.595-0.714,1.19-1.19,1.548-1.429c0.595-0.357,1.19-0.596,2.023-0.596c1.071,0,1.905,0.357,2.619,1.191
			c0.715,0.714,0.953,1.785,0.953,2.976c0,0.715-0.119,1.429-0.477,2.144c-0.238,0.714-0.714,1.19-1.071,1.548
			c-0.238,0.238-0.596,0.476-0.953,0.714c-0.356,0.238-0.714,0.596-1.071,0.715c-0.238,0.119-0.476,0.238-0.714,0.356
			c-0.238,0.119-0.596,0.119-1.071,0.119c-0.715,0-1.429-0.119-2.024-0.476l-0.477-0.238l-0.833,0.714l-0.357-0.119
			c0-0.237,0.119-0.595,0.119-1.19c0-0.595,0-1.429,0-2.262V430.945L489.915,430.945z M494.082,442.494
			c0.952,0,1.667-0.357,2.262-1.071c0.596-0.715,0.834-1.667,0.834-2.857c0-1.071-0.238-1.905-0.715-2.5
			c-0.476-0.596-1.19-0.953-2.143-0.953c-0.596,0-1.071,0.119-1.548,0.477c-0.477,0.238-0.833,0.715-1.071,1.19v4.763
			c0.238,0.119,0.477,0.357,0.833,0.476C493.011,442.375,493.488,442.494,494.082,442.494"/>
		<path fill="#3C3C3B" d="M501.821,441.185v-4.405c0-0.714,0-1.071-0.118-1.31c-0.119-0.119-0.357-0.238-0.715-0.238h-0.833v-0.595
			c0.595-0.119,1.19-0.238,1.548-0.357c0.476-0.119,0.952-0.238,1.547-0.477l0.238,0.119l0,0v7.144c0,0.596,0,1.071,0.119,1.19
			s0.357,0.238,0.715,0.238h0.833v0.596c-0.952,0-1.786,0-2.5,0c-0.715,0-1.548,0-2.5,0v-0.596h0.833
			c0.357,0,0.596-0.119,0.715-0.238C501.821,442.256,501.821,441.899,501.821,441.185 M502.655,429.518
			c0.357,0,0.595,0.118,0.833,0.356s0.357,0.477,0.357,0.834c0,0.356-0.119,0.595-0.357,0.833s-0.476,0.357-0.833,0.357
			s-0.596-0.119-0.834-0.357c-0.237-0.238-0.356-0.477-0.356-0.833c0-0.357,0.119-0.596,0.356-0.834
			C502.059,429.518,502.297,429.518,502.655,429.518"/>
		<path fill="#3C3C3B" d="M508.726,443.565c-0.714,0-1.31-0.238-1.785-0.714c-0.477-0.477-0.715-1.071-0.715-1.786
			c0-0.833,0.238-1.548,0.834-2.023c0.595-0.477,1.429-0.953,2.738-1.072l2.262-0.476v-0.119c0-0.834-0.238-1.429-0.596-1.905
			c-0.476-0.476-1.071-0.595-1.785-0.595c-0.357,0-0.596,0-0.834,0l0,0c-0.237,0-0.356,0.119-0.476,0.237
			c-0.119,0.119-0.238,0.238-0.357,0.477l-0.477,0.952l-0.476-0.119v-1.19c0.714-0.476,1.31-0.833,1.785-1.071
			c0.477-0.238,0.953-0.238,1.548-0.238c1.31,0,2.144,0.238,2.619,0.834c0.477,0.595,0.715,1.666,0.715,3.095v3.334
			c0,0.596,0,1.071,0.119,1.19s0.238,0.238,0.595,0.238h0.596v0.596c-0.596,0-1.071,0-1.548,0s-0.952,0-1.548,0
			c0-0.596,0-0.953,0-1.31v-0.477l-2.262,1.548l-0.238,0.119C509.441,443.446,509.083,443.565,508.726,443.565 M512.179,438.089
			l-1.548,0.238c-0.952,0.119-1.548,0.477-2.023,0.834c-0.477,0.356-0.596,0.833-0.596,1.547c0,0.477,0.119,0.834,0.477,1.191
			c0.356,0.356,0.714,0.476,1.071,0.476c0.476,0,0.952-0.119,1.429-0.476c0.357-0.238,0.714-0.596,1.19-0.953V438.089z"/>
	</g>
</g>
</svg>
